<?xml version="1.0" standalone="no"?>
<!DOCTYPE svg PUBLIC "-//W3C//DTD SVG 20010904//EN"
 "http://www.w3.org/TR/2001/REC-SVG-20010904/DTD/svg10.dtd">
<svg version="1.0" xmlns="http://www.w3.org/2000/svg"
 width="260.000000pt" height="260.000000pt" viewBox="0 0 260.000000 260.000000"
 preserveAspectRatio="xMidYMid meet">
<metadata>
Created by potrace 1.11, written by Peter Selinger 2001-2013
</metadata>
<g transform="translate(0.000000,260.000000) scale(0.100000,-0.100000)"
fill="#000000" stroke="none">
<path d="M1158 2445 c-2 -3 -22 -7 -44 -10 -105 -16 -314 -87 -314 -106 0 -6
-5 -7 -10 -4 -6 4 -23 -1 -38 -11 -15 -10 -29 -17 -31 -15 -2 1 -7 -1 -10 -6
-3 -4 -38 -29 -76 -55 -39 -26 -104 -80 -145 -121 -68 -67 -130 -135 -130
-142 0 -1 -20 -33 -45 -69 -25 -37 -45 -74 -45 -81 0 -7 -4 -15 -8 -17 -25
-10 -110 -270 -115 -349 -1 -21 -5 -39 -8 -39 -4 0 -7 -57 -7 -127 0 -129 14
-240 44 -342 9 -31 17 -62 17 -68 0 -7 5 -13 10 -13 6 0 7 -3 4 -7 -4 -3 0
-17 8 -30 9 -13 13 -23 11 -23 -13 0 94 -189 127 -226 28 -31 37 -44 37 -50 0
-13 201 -204 215 -204 7 0 15 -4 17 -8 4 -12 95 -72 107 -72 6 0 11 -4 11 -10
0 -5 4 -10 9 -10 5 0 35 -12 67 -27 33 -15 61 -28 64 -28 3 -1 36 -11 74 -23
37 -12 78 -24 90 -26 11 -3 32 -7 46 -10 118 -26 312 -24 446 4 135 28 345
110 375 146 6 8 16 14 21 14 30 0 175 123 267 226 80 89 211 314 211 362 0 10
4 22 9 28 6 5 12 20 15 34 3 14 10 45 17 70 17 69 19 80 26 150 37 352 -85
695 -335 950 -49 49 -94 90 -101 90 -6 0 -11 4 -11 8 0 10 -154 112 -168 112
-5 0 -15 7 -22 15 -7 9 -15 13 -18 11 -2 -3 -26 6 -53 20 -27 13 -52 25 -56
25 -5 1 -19 5 -32 10 -13 5 -26 7 -29 4 -3 -2 -10 -1 -16 4 -10 7 -33 14 -141
37 -33 8 -331 15 -337 9z"/>
</g>
</svg>
